<svg width="63" height="52" viewBox="0 0 63 52" fill="none" xmlns="http://www.w3.org/2000/svg">
<path d="M31.2245 51C37.9296 50.9991 44.4441 49.1535 49.7422 45.7537C55.0403 42.3539 58.8211 37.593 60.4895 32.2205C62.1579 26.848 61.619 21.169 58.9578 16.0776C56.2965 10.9862 51.664 6.77166 45.7896 4.09736C39.9151 1.42307 33.1324 0.440954 26.5092 1.30564C19.886 2.17033 13.7985 4.83271 9.20506 8.87364C4.61164 12.9146 1.7732 18.1045 1.13659 23.6264C0.499987 29.1483 2.10137 34.6886 5.68864 39.375L1.00455 51L15.0568 47.125C19.8906 49.6629 25.4993 51.0072 31.2245 51Z" fill="#0375D8" stroke="#0375D8" stroke-width="2" stroke-linecap="round" stroke-linejoin="round"/>
<path fill-rule="evenodd" clip-rule="evenodd" d="M36.4693 17.4559L38.9833 26.19C39.0586 26.4518 39.0604 26.7289 38.9887 26.9916C38.9169 27.2542 38.7744 27.4925 38.5763 27.6807C38.3782 27.8688 38.1322 27.9998 37.8647 28.0593C37.5972 28.1189 37.3184 28.1049 37.0583 28.0188L34.713 27.2442C34.8636 32.2955 33.0169 35.8872 31.1943 38.1766L30.7906 38.664L30.5903 38.8913L30.1987 39.316L29.8176 39.6973L29.6338 39.8722L29.2829 40.1908L28.9575 40.4704C27.9905 41.2719 26.811 41.5545 25.7386 41.5545H22.2169C21.1444 41.5545 19.965 41.2719 18.9979 40.4704L18.8262 40.3253L18.4602 40.0008C16.4357 38.1466 13.3042 34.2633 13.2349 28.0308L11.2571 29.3407C11.0041 29.5083 10.7059 29.5959 10.4018 29.592C10.0977 29.5881 9.80187 29.493 9.55327 29.319C9.30467 29.145 9.11495 28.9004 9.00907 28.6174C8.90318 28.3343 8.88609 28.0261 8.96005 27.7332L11.5177 17.58C11.6271 17.1456 11.8334 16.7412 12.1213 16.3966C12.4092 16.0519 12.7713 15.7758 13.181 15.5887C13.5908 15.4015 14.0376 15.3081 14.4885 15.3152C14.9395 15.3224 15.3831 15.43 15.7865 15.6301L19.4965 17.4708C19.7055 17.5748 19.936 17.6291 20.1698 17.6293H27.7856C28.0194 17.6291 28.2499 17.5748 28.4589 17.4708L32.2246 15.6017C32.6206 15.405 33.0555 15.2974 33.4981 15.2866C33.9408 15.2758 34.3804 15.3619 34.7857 15.539C35.191 15.716 35.552 15.9796 35.843 16.3109C36.134 16.6422 36.3479 17.0332 36.4693 17.4559ZM23.9777 30.3396C23.5782 30.3396 23.1951 30.4971 22.9126 30.7775C22.6301 31.058 22.4714 31.4383 22.4714 31.8349C22.4714 32.0332 22.3921 32.2234 22.2508 32.3636C22.1096 32.5038 21.918 32.5826 21.7183 32.5826C21.3188 32.5826 20.9357 32.7401 20.6532 33.0205C20.3707 33.3009 20.212 33.6813 20.212 34.0779C20.212 34.4745 20.3707 34.8548 20.6532 35.1352C20.9357 35.4157 21.3188 35.5732 21.7183 35.5732C22.5331 35.5732 23.3259 35.3108 23.9777 34.8255C24.6073 35.2951 25.3891 35.5732 26.2371 35.5732C26.6366 35.5732 27.0198 35.4157 27.3023 35.1352C27.5847 34.8548 27.7434 34.4745 27.7434 34.0779C27.7434 33.6813 27.5847 33.3009 27.3023 33.0205C27.0198 32.7401 26.6366 32.5826 26.2371 32.5826C26.0374 32.5826 25.8458 32.5038 25.7046 32.3636C25.5634 32.2234 25.484 32.0332 25.484 31.8349C25.484 31.4383 25.3253 31.058 25.0428 30.7775C24.7603 30.4971 24.3772 30.3396 23.9777 30.3396ZM20.212 23.6106C19.6128 23.6106 19.0381 23.8469 18.6143 24.2676C18.1906 24.6882 17.9526 25.2587 17.9526 25.8536C17.9526 26.4485 18.1906 27.019 18.6143 27.4396C19.0381 27.8603 19.6128 28.0966 20.212 28.0966C20.8112 28.0966 21.3859 27.8603 21.8097 27.4396C22.2334 27.019 22.4714 26.4485 22.4714 25.8536C22.4714 25.2587 22.2334 24.6882 21.8097 24.2676C21.3859 23.8469 20.8112 23.6106 20.212 23.6106ZM27.7434 23.6106C27.1442 23.6106 26.5695 23.8469 26.1458 24.2676C25.722 24.6882 25.484 25.2587 25.484 25.8536C25.484 26.4485 25.722 27.019 26.1458 27.4396C26.5695 27.8603 27.1442 28.0966 27.7434 28.0966C28.3427 28.0966 28.9174 27.8603 29.3411 27.4396C29.7648 27.019 30.0029 26.4485 30.0029 25.8536C30.0029 25.2587 29.7648 24.6882 29.3411 24.2676C28.9174 23.8469 28.3427 23.6106 27.7434 23.6106Z" fill="white"/>
<path d="M31.3832 23.7635C31.3832 21.781 33.6946 20.7086 35.2114 21.9715L35.2104 21.9725L39.4262 25.4657H44.0473L48.2641 21.9706C49.7809 20.7093 52.0912 21.7816 52.0912 23.7635V33.117C52.091 38.8199 47.4543 43.4286 41.7368 43.4286C36.0193 43.4284 31.3835 38.8198 31.3832 33.117V23.7635ZM37.728 32.454C37.3575 32.4541 37.058 32.7591 37.058 33.117C37.0583 33.4748 37.3576 33.779 37.728 33.7791C38.0984 33.7791 38.3986 33.4749 38.3989 33.117C38.3989 32.759 38.0986 32.454 37.728 32.454ZM45.7455 32.454C45.375 32.4541 45.0756 32.7591 45.0756 33.117C45.0759 33.4748 45.3752 33.779 45.7455 33.7791C46.116 33.7791 46.4162 33.4749 46.4164 33.117C46.4164 32.759 46.1162 32.454 45.7455 32.454Z" fill="white" stroke="#0375D8" stroke-width="2"/>
<path d="M45.4316 13.3222V14.9294H47.0505V16.0008H45.4316V17.6079H44.3523V16.0008H42.7334V14.9294H44.3523V13.3222H45.4316ZM46.1024 8.37063C46.6591 8.92319 46.994 9.6582 47.0444 10.4381C47.0947 11.2181 46.8571 11.9895 46.376 12.6081C45.7638 12.2947 45.0669 12.1832 44.3865 12.2898C43.7061 12.3965 43.0778 12.7158 42.5927 13.2014C42.1077 13.6869 41.7912 14.3133 41.6894 14.9896C41.5876 15.6659 41.7056 16.3568 42.0265 16.9619L41.6541 17.3321L37.0785 12.7828C36.5277 12.1699 36.2341 11.3709 36.258 10.5499C36.2819 9.72888 36.6215 8.9481 37.2071 8.36786C37.7927 7.78761 38.5799 7.45193 39.407 7.42973C40.2341 7.40753 41.0383 7.7005 41.6547 8.24848C42.2714 7.7008 43.0759 7.40828 43.903 7.431C44.7301 7.45371 45.5171 7.78993 46.1024 8.37063Z" fill="#FF9393"/>
</svg>
