<svg width="76" height="76" viewBox="0 0 76 76" fill="none" xmlns="http://www.w3.org/2000/svg">
<circle cx="38" cy="38" r="38" fill="url(#paint0_linear_249_19936)"/>
<g clip-path="url(#clip0_249_19936)">
<mask id="path-2-inside-1_249_19936" fill="white">
<path fill-rule="evenodd" clip-rule="evenodd" d="M7.69358 43.1187C7.14652 42.3549 6.92528 41.4051 7.07853 40.4781C7.23178 39.5512 7.74696 38.7232 8.51075 38.1761L10.6314 36.6572C11.0356 36.3677 11.5072 36.3215 11.9168 36.4543L15.5533 33.8497C15.556 33.6236 15.6123 33.4013 15.7175 33.2012C15.8227 33.001 15.9739 32.8287 16.1587 32.6983L18.2793 31.1794C19.0431 30.6324 19.9929 30.4111 20.9198 30.5644C21.8467 30.7176 22.6748 31.2328 23.2219 31.9966L25.2035 35.0281C25.6528 35.6554 25.2772 37.219 24.8427 37.6863L25.0838 40.1135C25.5811 40.8078 25.5472 41.0988 25.4079 41.9415C25.2686 42.7841 25.0352 44.1094 24.3409 44.6067L24.9534 46.142C24.1599 46.2296 23.8546 46.2061 24.7183 45.5526C24.6041 46.017 25.4267 46.4854 25.2035 46.9281C25.124 46.6777 25.004 46.4349 24.8427 46.2097L24.372 45.5526C24.4576 45.2708 24.5215 44.983 24.5633 44.6915C24.7404 43.4587 24.5049 42.359 24.1336 41.8406C23.4424 40.8756 22.5593 40.5884 21.6121 40.6718C20.6213 40.7596 19.5532 41.2592 18.6395 41.9136C17.6132 42.6487 16.8072 43.5231 16.434 44.4202C16.0766 45.2783 16.0991 46.178 16.77 47.1148C17.3716 47.9546 18.4269 48.4513 19.6133 48.5625C19.8067 48.5804 20.0001 48.5879 20.1935 48.5851L20.6454 49.216C20.8055 49.4396 20.9951 49.6302 21.205 49.7849C20.6993 49.8676 20.1858 49.8925 19.6745 49.8592C19.6312 49.9247 19.5762 49.9818 19.5123 50.0276L18.5551 50.7132C17.8608 51.2105 16.9973 51.4116 16.1547 51.2723C15.312 51.133 14.5592 50.6646 14.0619 49.9703L12.1312 47.2747C11.5462 47.5464 10.7899 47.4416 10.3357 46.8075L7.69358 43.1187ZM24.3191 46.5848C24.5551 46.916 24.6809 47.3131 24.6786 47.7199C24.6764 48.1266 24.5462 48.5223 24.3064 48.8509C24.0667 49.1794 23.7297 49.4243 23.3431 49.5506C22.9565 49.6769 22.5399 49.6784 22.1524 49.5547C21.756 49.4296 21.4109 49.1791 21.169 48.841L20.4002 47.7676C20.3292 47.8368 20.2529 47.9004 20.1721 47.9579C20.1026 48.0076 20.0163 48.0277 19.932 48.0138C19.8478 47.9999 19.7725 47.953 19.7228 47.8836C19.673 47.8142 19.6529 47.7278 19.6668 47.6436C19.6808 47.5593 19.7276 47.484 19.797 47.4343C19.9965 47.2914 20.1862 47.0684 20.3226 46.7909L20.5039 46.219C20.5797 45.7463 20.4976 45.1959 20.138 44.6352C20.1061 44.5939 20.075 44.552 20.0447 44.5094C19.995 44.44 19.9749 44.3536 19.9888 44.2694C20.0028 44.1851 20.0496 44.1098 20.119 44.0601L20.1248 44.056C20.1942 44.0062 20.2806 43.9861 20.3648 44.0001C20.4491 44.014 20.5244 44.0608 20.5741 44.1303C20.6051 44.1735 20.6348 44.2168 20.663 44.2599C21.0699 44.7694 21.553 45.0247 22.017 45.1106L22.6731 45.124C22.9676 45.0818 23.2293 44.9759 23.4231 44.8372C23.4925 44.7874 23.5789 44.7673 23.6631 44.7813C23.7474 44.7952 23.8227 44.842 23.8724 44.9115C23.9221 44.9809 23.9422 45.0672 23.9283 45.1515C23.9144 45.2358 23.8675 45.311 23.7981 45.3608C23.7213 45.4158 23.6388 45.4665 23.5505 45.5128L24.3191 46.5848ZM12.9245 37.828C12.9237 37.6654 12.8974 37.5115 12.8502 37.3702L16.1201 35.0281C16.2386 35.1184 16.3759 35.1928 16.5296 35.2459L24.213 37.8987C24.3023 37.9298 24.3902 37.9519 24.4767 37.9649L24.0365 40.8635C24.3349 41.2802 24.4556 41.7982 24.372 42.3038C24.2884 42.8094 25.29 43.8656 24.8734 44.164L24.6016 44.3586C24.6013 43.2853 25.6649 41.7674 25.1803 41.0909C24.1932 39.7128 22.8452 39.2697 21.4989 39.3887C20.1951 39.5041 18.9073 40.1374 17.8894 40.8664C16.7568 41.6776 15.7446 42.7243 15.2446 43.9254C14.7276 45.1679 14.7762 46.5432 15.7228 47.8648C16.2951 48.6639 17.1104 49.2049 18.0061 49.5219L17.8051 49.6659C17.3885 49.9643 16.8704 50.085 16.3648 50.0014C15.8592 49.9178 15.4075 49.6368 15.1091 49.2202L12.9452 46.199C12.9573 46.1216 12.9633 46.0407 12.9631 45.9564L12.9245 37.828ZM14.7976 39.9366C14.6587 40.036 14.5651 40.1866 14.5372 40.3551C14.5093 40.5236 14.5496 40.6963 14.649 40.8352L15.0241 41.3588C15.1235 41.4977 15.2741 41.5914 15.4426 41.6192C15.6111 41.6471 15.7838 41.6069 15.9227 41.5074C16.0616 41.4079 16.1552 41.2574 16.1831 41.0888C16.211 40.9203 16.1707 40.7476 16.0713 40.6088L15.6962 40.0851C15.5968 39.9463 15.4462 39.8526 15.2777 39.8247C15.1092 39.7969 14.9365 39.8371 14.7976 39.9366ZM17.9393 37.6863C17.8004 37.7858 17.7067 37.9364 17.6789 38.1049C17.651 38.2734 17.6912 38.4461 17.7907 38.585L18.1657 39.1086C18.2652 39.2475 18.4158 39.3411 18.5843 39.369C18.7528 39.3969 18.9255 39.3566 19.0644 39.2572C19.2033 39.1577 19.2969 39.0072 19.3248 38.8386C19.3527 38.6701 19.3124 38.4974 19.213 38.3585L18.8379 37.8349C18.7385 37.696 18.5879 37.6024 18.4194 37.5745C18.2508 37.5467 18.0781 37.5869 17.9393 37.6863ZM19.5932 42.0473L18.38 42.9163C18.0742 43.1353 18.0959 43.7662 18.5984 43.9268C18.9395 44.0359 19.7107 44.1901 20.0641 43.937C20.4176 43.6838 20.4978 42.9198 20.4933 42.5696C20.459 41.9255 19.8485 41.874 19.5932 42.0473Z"/>
</mask>
<path fill-rule="evenodd" clip-rule="evenodd" d="M7.69358 43.1187C7.14652 42.3549 6.92528 41.4051 7.07853 40.4781C7.23178 39.5512 7.74696 38.7232 8.51075 38.1761L10.6314 36.6572C11.0356 36.3677 11.5072 36.3215 11.9168 36.4543L15.5533 33.8497C15.556 33.6236 15.6123 33.4013 15.7175 33.2012C15.8227 33.001 15.9739 32.8287 16.1587 32.6983L18.2793 31.1794C19.0431 30.6324 19.9929 30.4111 20.9198 30.5644C21.8467 30.7176 22.6748 31.2328 23.2219 31.9966L25.2035 35.0281C25.6528 35.6554 25.2772 37.219 24.8427 37.6863L25.0838 40.1135C25.5811 40.8078 25.5472 41.0988 25.4079 41.9415C25.2686 42.7841 25.0352 44.1094 24.3409 44.6067L24.9534 46.142C24.1599 46.2296 23.8546 46.2061 24.7183 45.5526C24.6041 46.017 25.4267 46.4854 25.2035 46.9281C25.124 46.6777 25.004 46.4349 24.8427 46.2097L24.372 45.5526C24.4576 45.2708 24.5215 44.983 24.5633 44.6915C24.7404 43.4587 24.5049 42.359 24.1336 41.8406C23.4424 40.8756 22.5593 40.5884 21.6121 40.6718C20.6213 40.7596 19.5532 41.2592 18.6395 41.9136C17.6132 42.6487 16.8072 43.5231 16.434 44.4202C16.0766 45.2783 16.0991 46.178 16.77 47.1148C17.3716 47.9546 18.4269 48.4513 19.6133 48.5625C19.8067 48.5804 20.0001 48.5879 20.1935 48.5851L20.6454 49.216C20.8055 49.4396 20.9951 49.6302 21.205 49.7849C20.6993 49.8676 20.1858 49.8925 19.6745 49.8592C19.6312 49.9247 19.5762 49.9818 19.5123 50.0276L18.5551 50.7132C17.8608 51.2105 16.9973 51.4116 16.1547 51.2723C15.312 51.133 14.5592 50.6646 14.0619 49.9703L12.1312 47.2747C11.5462 47.5464 10.7899 47.4416 10.3357 46.8075L7.69358 43.1187ZM24.3191 46.5848C24.5551 46.916 24.6809 47.3131 24.6786 47.7199C24.6764 48.1266 24.5462 48.5223 24.3064 48.8509C24.0667 49.1794 23.7297 49.4243 23.3431 49.5506C22.9565 49.6769 22.5399 49.6784 22.1524 49.5547C21.756 49.4296 21.4109 49.1791 21.169 48.841L20.4002 47.7676C20.3292 47.8368 20.2529 47.9004 20.1721 47.9579C20.1026 48.0076 20.0163 48.0277 19.932 48.0138C19.8478 47.9999 19.7725 47.953 19.7228 47.8836C19.673 47.8142 19.6529 47.7278 19.6668 47.6436C19.6808 47.5593 19.7276 47.484 19.797 47.4343C19.9965 47.2914 20.1862 47.0684 20.3226 46.7909L20.5039 46.219C20.5797 45.7463 20.4976 45.1959 20.138 44.6352C20.1061 44.5939 20.075 44.552 20.0447 44.5094C19.995 44.44 19.9749 44.3536 19.9888 44.2694C20.0028 44.1851 20.0496 44.1098 20.119 44.0601L20.1248 44.056C20.1942 44.0062 20.2806 43.9861 20.3648 44.0001C20.4491 44.014 20.5244 44.0608 20.5741 44.1303C20.6051 44.1735 20.6348 44.2168 20.663 44.2599C21.0699 44.7694 21.553 45.0247 22.017 45.1106L22.6731 45.124C22.9676 45.0818 23.2293 44.9759 23.4231 44.8372C23.4925 44.7874 23.5789 44.7673 23.6631 44.7813C23.7474 44.7952 23.8227 44.842 23.8724 44.9115C23.9221 44.9809 23.9422 45.0672 23.9283 45.1515C23.9144 45.2358 23.8675 45.311 23.7981 45.3608C23.7213 45.4158 23.6388 45.4665 23.5505 45.5128L24.3191 46.5848ZM12.9245 37.828C12.9237 37.6654 12.8974 37.5115 12.8502 37.3702L16.1201 35.0281C16.2386 35.1184 16.3759 35.1928 16.5296 35.2459L24.213 37.8987C24.3023 37.9298 24.3902 37.9519 24.4767 37.9649L24.0365 40.8635C24.3349 41.2802 24.4556 41.7982 24.372 42.3038C24.2884 42.8094 25.29 43.8656 24.8734 44.164L24.6016 44.3586C24.6013 43.2853 25.6649 41.7674 25.1803 41.0909C24.1932 39.7128 22.8452 39.2697 21.4989 39.3887C20.1951 39.5041 18.9073 40.1374 17.8894 40.8664C16.7568 41.6776 15.7446 42.7243 15.2446 43.9254C14.7276 45.1679 14.7762 46.5432 15.7228 47.8648C16.2951 48.6639 17.1104 49.2049 18.0061 49.5219L17.8051 49.6659C17.3885 49.9643 16.8704 50.085 16.3648 50.0014C15.8592 49.9178 15.4075 49.6368 15.1091 49.2202L12.9452 46.199C12.9573 46.1216 12.9633 46.0407 12.9631 45.9564L12.9245 37.828ZM14.7976 39.9366C14.6587 40.036 14.5651 40.1866 14.5372 40.3551C14.5093 40.5236 14.5496 40.6963 14.649 40.8352L15.0241 41.3588C15.1235 41.4977 15.2741 41.5914 15.4426 41.6192C15.6111 41.6471 15.7838 41.6069 15.9227 41.5074C16.0616 41.4079 16.1552 41.2574 16.1831 41.0888C16.211 40.9203 16.1707 40.7476 16.0713 40.6088L15.6962 40.0851C15.5968 39.9463 15.4462 39.8526 15.2777 39.8247C15.1092 39.7969 14.9365 39.8371 14.7976 39.9366ZM17.9393 37.6863C17.8004 37.7858 17.7067 37.9364 17.6789 38.1049C17.651 38.2734 17.6912 38.4461 17.7907 38.585L18.1657 39.1086C18.2652 39.2475 18.4158 39.3411 18.5843 39.369C18.7528 39.3969 18.9255 39.3566 19.0644 39.2572C19.2033 39.1577 19.2969 39.0072 19.3248 38.8386C19.3527 38.6701 19.3124 38.4974 19.213 38.3585L18.8379 37.8349C18.7385 37.696 18.5879 37.6024 18.4194 37.5745C18.2508 37.5467 18.0781 37.5869 17.9393 37.6863ZM19.5932 42.0473L18.38 42.9163C18.0742 43.1353 18.0959 43.7662 18.5984 43.9268C18.9395 44.0359 19.7107 44.1901 20.0641 43.937C20.4176 43.6838 20.4978 42.9198 20.4933 42.5696C20.459 41.9255 19.8485 41.874 19.5932 42.0473Z" fill="white" stroke="white" stroke-width="2" mask="url(#path-2-inside-1_249_19936)"/>
</g>
<g clip-path="url(#clip1_249_19936)">
<path fill-rule="evenodd" clip-rule="evenodd" d="M69.8547 36.1711C69.747 36.0446 69.6055 35.9513 69.4468 35.9022C69.288 35.853 69.1186 35.85 68.9582 35.8934L63.6775 37.3522C63.1088 36.8535 62.4728 36.4373 61.7881 36.1157C61.0814 35.7816 60.3535 35.5574 59.6336 35.4401L57.41 30.4331C57.3425 30.2811 57.2327 30.1516 57.0938 30.06C56.9548 29.9684 56.7925 29.9187 56.6261 29.9167C56.4598 29.9146 56.2963 29.9604 56.1551 30.0485C56.014 30.1366 55.9011 30.2634 55.8299 30.4137L52.685 37.8116C53.1585 37.8116 52.7001 39.0716 52.7512 39.2687C52.5857 39.1502 52.8023 39.4658 52.7512 39.2687C52.9167 39.3872 52.761 39.5262 52.9641 39.5112C53.1671 39.4962 53.3584 39.4103 53.5046 39.2687C53.847 38.9383 54.672 38.3129 55.7106 37.8116C56.4599 37.4504 57.2615 37.1802 58.0356 37.1016C58.3296 37.0765 58.6357 37.0776 58.9541 37.1051L58.9628 37.1061C59.6853 37.1777 60.3899 37.3744 61.0449 37.6875C62.0811 38.1774 62.8867 38.8814 63.4093 39.644C63.8385 40.2915 64.139 41.0813 64.3328 41.8884C64.6057 43.0098 64.6464 44.043 64.6071 44.5198C64.5905 44.7228 64.6456 44.9252 64.763 45.0917C64.8803 45.2583 65.0524 45.3783 65.2492 45.4308C65.446 45.4834 65.655 45.4652 65.8398 45.3794C66.0245 45.2936 66.1732 45.1456 66.26 44.9613L69.9759 37.1024C70.0462 36.9516 70.072 36.784 70.0506 36.6191C70.0291 36.4542 69.9612 36.2989 69.8547 36.1711ZM58.985 49.4142C59.2154 49.4272 59.4311 49.5312 59.5847 49.7033C59.7384 49.8753 59.8174 50.1014 59.8044 50.3317C59.7914 50.562 59.6874 50.7777 59.5154 50.9314C59.3433 51.085 59.1173 51.164 58.887 51.151C58.0613 51.1038 57.2525 50.897 56.5056 50.542L53.9907 49.3529C53.2212 48.989 52.5556 48.4898 52.0088 47.8989C51.9314 47.8148 52.433 47.7163 52.3937 47.609C52.3889 47.7232 52.3543 47.5016 52.3937 47.609C53.0078 47.9445 52.3937 47.7811 52.1139 47.2734C52.2838 47.117 52.4544 46.4301 52.685 46.4396C52.9157 46.4491 53.1331 46.5499 53.2895 46.7197C53.6854 47.1515 54.1693 47.5142 54.7339 47.7811L57.2487 48.9702C57.8133 49.2372 58.402 49.3816 58.985 49.4142ZM65.9141 46.9132C66.1225 47.0118 66.2832 47.1891 66.3609 47.4062C66.4386 47.6232 66.4269 47.8623 66.3284 48.0707C66.2298 48.2791 66.0525 48.4399 65.8354 48.5176C65.6184 48.5953 65.3793 48.5836 65.1709 48.485L61.713 46.85C61.5045 46.7515 61.3438 46.5741 61.2661 46.3571C61.1884 46.14 61.2001 45.901 61.2986 45.6925C61.3972 45.4841 61.5745 45.3233 61.7916 45.2456C62.0087 45.1679 62.2477 45.1797 62.4561 45.2782L65.9141 46.9132ZM60.3184 47.6322C60.2245 47.6971 60.1443 47.7799 60.0823 47.8758C60.0204 47.9717 59.9779 48.0789 59.9574 48.1912C59.9369 48.3035 59.9387 48.4187 59.9627 48.5303C59.9867 48.6419 60.0325 48.7477 60.0974 48.8417L62.2663 51.9827C62.3973 52.1723 62.5984 52.3022 62.8252 52.3437C63.052 52.3851 63.286 52.3348 63.4757 52.2037C63.6654 52.0726 63.7952 51.8716 63.8367 51.6448C63.8781 51.418 63.8278 51.184 63.6967 50.9943L61.5278 47.8533C61.4629 47.7594 61.3802 47.6791 61.2843 47.6172C61.1884 47.5553 61.0812 47.5128 60.9689 47.4923C60.8566 47.4718 60.7413 47.4736 60.6297 47.4976C60.5181 47.5216 60.4123 47.5673 60.3184 47.6322ZM54.2828 41.4137C54.4913 41.5122 54.652 41.6895 54.7297 41.9066C54.8074 42.1237 54.7957 42.3627 54.6971 42.5712C54.5986 42.7796 54.4213 42.9403 54.2042 43.018C53.9871 43.0957 53.7481 43.084 53.5397 42.9855L53.3781 42.4168C53.1697 42.3182 53.009 42.1409 52.9313 41.9238C52.8536 41.7068 52.1805 42.916 52.9638 41.2593C53.0624 41.0509 53.2397 40.8901 53.4568 40.8124C53.6739 40.7347 53.9129 40.7464 54.1213 40.845L54.2828 41.4137ZM53.82 44.5596C53.8106 44.4459 53.7788 44.3351 53.7266 44.2336C53.6743 44.1321 53.6025 44.0419 53.5154 43.9681C53.4283 43.8943 53.3275 43.8384 53.2188 43.8036C53.11 43.7688 52.9955 43.7558 52.8817 43.7652L53.0772 44.0834C52.9635 44.0928 52.8527 44.1246 52.7512 44.1769C52.6497 44.2291 52.5595 44.3009 52.4857 44.388C52.3367 44.564 56.3008 44.5579 52.7512 45.0199C55.969 45.0182 52.4115 45.4642 52.5874 45.6132C54.5006 45.7095 52.7754 45.7429 52.8841 45.7777C52.9928 45.8125 53.1073 45.8256 53.2211 45.8161L53.025 45.4992C53.1388 45.4897 53.2496 45.458 53.3511 45.4057C53.4526 45.3535 53.5428 45.2817 53.6165 45.1946C53.6903 45.1075 53.7462 45.0067 53.781 44.8979C53.8158 44.7892 53.8295 44.6734 53.82 44.5596ZM59.1639 44.1062C59.3327 44.1859 59.4713 44.3178 59.5593 44.4823C59.6472 44.6469 59.68 44.8354 59.6526 45.0199C59.6251 45.2045 59.5391 45.3754 59.4071 45.5073C59.275 45.6392 59.1041 45.7251 58.9195 45.7523L57.6792 45.9351C57.5092 45.9602 57.3356 45.9345 57.1803 45.861C57.025 45.7876 56.8949 45.6698 56.8065 45.5225L56.1607 44.4478C56.0646 44.2879 56.0225 44.1013 56.0407 43.9156C56.0588 43.7298 56.1363 43.5549 56.2615 43.4166C56.3868 43.2783 56.5532 43.1839 56.7362 43.1475C56.9192 43.1111 57.1091 43.1346 57.2778 43.2144L59.1639 44.1062ZM62.9507 43.0119C62.8128 43.3037 62.5645 43.5288 62.2606 43.6376C61.9567 43.7463 61.6221 43.7299 61.3303 43.592C61.0384 43.454 60.8134 43.2058 60.7046 42.9019C60.5959 42.598 60.6123 42.2633 60.7502 41.9715C60.8882 41.6797 61.1364 41.4546 61.4403 41.3459C61.7442 41.2371 62.0789 41.2535 62.3707 41.3915C62.6625 41.5294 62.8876 41.7777 62.9963 42.0816C63.1051 42.3855 63.0887 42.7201 62.9507 43.0119ZM57.921 40.6338C57.8527 40.7783 57.7566 40.9079 57.6382 41.0152C57.5198 41.1226 57.3814 41.2055 57.2309 41.2594C57.0804 41.3132 56.9208 41.3369 56.7612 41.3291C56.6016 41.3213 56.445 41.2821 56.3005 41.2138C56.1561 41.1455 56.0264 41.0494 55.9191 40.931C55.8117 40.8125 55.7288 40.6742 55.6749 40.5237C55.6211 40.3732 55.5974 40.2136 55.6052 40.054C55.613 39.8943 55.6522 39.7378 55.7205 39.5933C55.8585 39.3015 56.1067 39.0765 56.4106 38.9677C56.7145 38.8589 57.0492 38.8753 57.341 39.0133C57.6328 39.1513 57.8578 39.3995 57.9666 39.7034C58.0754 40.0073 58.059 40.342 57.921 40.6338Z" fill="white"/>
</g>
<path d="M47.6611 30.915H30.2712C27.0698 30.915 24.4746 33.5103 24.4746 36.7116V45.4066C24.4746 48.6079 27.0698 51.2032 30.2712 51.2032H47.6611C50.8624 51.2032 53.4577 48.6079 53.4577 45.4066V36.7116C53.4577 33.5103 50.8624 30.915 47.6611 30.915Z" stroke="white" stroke-width="2" stroke-linecap="round" stroke-linejoin="round"/>
<path d="M38.9667 25.1189C40.5674 25.1189 41.865 23.8213 41.865 22.2206C41.865 20.6199 40.5674 19.3223 38.9667 19.3223C37.366 19.3223 36.0684 20.6199 36.0684 22.2206C36.0684 23.8213 37.366 25.1189 38.9667 25.1189Z" stroke="white" stroke-width="2" stroke-linecap="round" stroke-linejoin="round"/>
<path d="M38.9666 25.1187V30.9153M34.6191 42.5085V39.6102M43.3141 39.6102V42.5085" stroke="white" stroke-width="2" stroke-linecap="round" stroke-linejoin="round"/>
<defs>
<linearGradient id="paint0_linear_249_19936" x1="6.44068" y1="11.5932" x2="65.0508" y2="76" gradientUnits="userSpaceOnUse">
<stop stop-color="#41E69D"/>
<stop offset="1" stop-color="#1CDED9"/>
</linearGradient>
<clipPath id="clip0_249_19936">
<rect width="20.6102" height="20.6102" fill="white" transform="translate(3.86523 39.0522) rotate(-35.612)"/>
</clipPath>
<clipPath id="clip1_249_19936">
<rect width="19.4726" height="19.4726" fill="white" transform="translate(54.6953 28.3389) rotate(25.306)"/>
</clipPath>
</defs>
</svg>
